<svg xmlns="http://www.w3.org/2000/svg"  viewBox="0 0 48 48" width="480px" height="480px" fill-rule="evenodd" clip-rule="evenodd" baseProfile="basic"><path fill-rule="evenodd" d="M8.997,39.999v2.001h3.001v-2.001	H8.997z" clip-rule="evenodd"/><path fill-rule="evenodd" d="M8.001,24.999v2.001h33.007v-2.001	H8.001z" clip-rule="evenodd"/><path fill-rule="evenodd" d="M9.005,42.001	c0-0.516,0.123-1.008,0.343-1.432l1.732-3.465c-1.94-2.705-3.081-6.021-3.081-9.604c0-8.984,7.193-16.299,16.132-16.495l2.727-5.452	c0.169-0.339,0.515-0.553,0.895-0.553h5.247c0.551,0,1,0.449,1,1v8.011c4.233,2.988,7.003,7.917,7.003,13.489	c0,9.109-7.393,16.5-16.501,16.5c-2.697,0-5.241-0.645-7.489-1.792l-0.591,1.183c-0.453,0.921-1.384,1.609-2.508,1.609	c-0.332,0-1.744,0.003-2.076,0.003C10.191,45.002,9.005,43.573,9.005,42.001z" clip-rule="evenodd"/><path fill="#fff" fill-rule="evenodd" d="M24.499,9.999	c8.556,0,15.501,6.944,15.501,15.5c0,8.556-6.945,15.5-15.501,15.5c-8.556,0-15.501-6.944-15.501-15.5	C8.998,16.943,15.943,9.999,24.499,9.999z" clip-rule="evenodd"/><path fill-rule="evenodd" d="M7.998,25.499	c0-9.108,7.392-16.5,16.501-16.5c9.108,0,16.501,7.392,16.501,16.5c0,9.109-7.393,16.5-16.501,16.5	C15.39,41.999,7.998,34.609,7.998,25.499z M39.001,25.499c0-8.003-6.499-14.5-14.501-14.5c-8.004,0-14.501,6.497-14.501,14.5	c0,8.004,6.497,14.5,14.501,14.5C32.502,39.999,39.001,33.503,39.001,25.499z" clip-rule="evenodd"/><path fill="#fff" fill-rule="evenodd" d="M10.239,39.021	L27.751,3.999h5.247v31h-5v-3.999h-7.501l-4.972,9.944c-0.309,0.628-0.917,1.055-1.613,1.055c-0.332,0-1.744,0.003-2.076,0.003	c-1.009,0-1.831-0.897-1.831-2.001C10.005,39.645,10.09,39.31,10.239,39.021z" clip-rule="evenodd"/><path fill-rule="evenodd" d="M25.998,18.999v2.001h1.999v-2.001	H25.998z" clip-rule="evenodd"/><path fill-rule="evenodd" d="M9.005,40.001	c0-0.516,0.123-1.008,0.343-1.432L26.857,3.553c0.169-0.339,0.515-0.553,0.895-0.553h5.247c0.551,0,1,0.449,1,1v31	c0,0.552-0.449,1-1,1h-5c-0.552,0-1-0.448-1-1v-2.999h-5.884l-4.695,9.389c-0.453,0.921-1.384,1.609-2.508,1.609	c-0.332,0-1.744,0.003-2.076,0.003C10.191,43.002,9.005,41.573,9.005,40.001z M13.911,40.999c0.267,0,0.552-0.164,0.717-0.499	l4.973-9.947c0.169-0.339,0.515-0.553,0.895-0.553h7.501c0.551,0,1,0.449,1,1v2.999h3v-29h-3.629L11.13,39.474	c-0.079,0.155-0.125,0.332-0.125,0.527c0,0.637,0.455,1.001,0.831,1.001C12.167,41.002,13.579,40.999,13.911,40.999z" clip-rule="evenodd"/><path fill-rule="evenodd" d="M22.103,25.553l5-10	c0.469-0.939,1.895-0.603,1.895,0.447v10c0,0.069-0.008,0.137-0.021,0.203c-0.093,0.455-0.497,0.797-0.979,0.797h-5	C22.255,26.999,21.771,26.217,22.103,25.553z M26.998,24.999v-4.763l-2.383,4.763H26.998z" clip-rule="evenodd"/><path fill-rule="evenodd" d="M29.998,31.999v3.001h2.999v-3.001	H29.998z" clip-rule="evenodd"/><path fill="#fff" fill-rule="evenodd" d="M25.877,35.121	l0.121-0.121v-2h2l4.5-4.5l-4.28-4.283l-0.22-1.217l-1,1l-0.275-2.715c1.111-0.523,2.477-0.323,3.395,0.595l4.5,4.5	c1.172,1.171,1.172,3.071,0,4.241l-4.5,4.5C28.947,36.293,27.047,36.293,25.877,35.121z" clip-rule="evenodd"/><path fill-rule="evenodd" d="M27.29,33.707	c-0.391-0.391-0.391-1.024,0-1.415l3.793-3.793l-3.793-3.792c-0.391-0.391-0.391-1.024,0-1.415c0.391-0.391,1.024-0.391,1.415,0	l4.5,4.5c0.391,0.391,0.391,1.024,0,1.415l-4.5,4.5C28.314,34.098,27.681,34.098,27.29,33.707z" clip-rule="evenodd"/></svg>