<svg xmlns="http://www.w3.org/2000/svg"  viewBox="0 0 48 48" width="480px" height="480px" fill-rule="evenodd" clip-rule="evenodd" baseProfile="basic"><path fill-rule="evenodd" d="M5.997,36.998v2.001h3.001v-2.001	H5.997z" clip-rule="evenodd"/><path fill-rule="evenodd" d="M2.998,31.997v2.001H6v-2.001H2.998z" clip-rule="evenodd"/><path fill-rule="evenodd" d="M-0.002,22.998v2.001H3v-2.001H-0.002	z" clip-rule="evenodd"/><path fill-rule="evenodd" d="M3.998,7.998v2.001H7V7.998H3.998z" clip-rule="evenodd"/><path fill-rule="evenodd" d="M18.997,1.998v2.001h2.001V1.998	H18.997z" clip-rule="evenodd"/><path fill-rule="evenodd" d="M42.997,17.998v2.001h3.001v-2.001	H42.997z" clip-rule="evenodd"/><path fill-rule="evenodd" d="M44.997,22.998v2.001h3.001v-2.001	H44.997z" clip-rule="evenodd"/><path fill-rule="evenodd" d="M43.997,30.997v2.001h3.001v-2.001	H43.997z" clip-rule="evenodd"/><path fill-rule="evenodd" d="M40.997,35.998v2.001h3.001v-2.001	H40.997z" clip-rule="evenodd"/><path fill-rule="evenodd" d="M18.493,41.863	c-0.065-0.037-0.127-0.084-0.183-0.139c-0.531-0.5-1.216-1.095-1.943-1.727H6.998c-0.797,0-1.275-0.891-0.833-1.555l1.317-1.973	l-3.856-1.543c-0.767-0.307-0.851-1.361-0.143-1.787l4.001-2.4l-0.801-0.964C5.05,28.121,3.01,26.869,0.63,25.929	c-0.669-0.264-0.848-1.131-0.339-1.639c1.701-1.693,4.9-4.292,8.707-4.292c0.936,0,1.903,0.155,2.813,0.361l0.455,0.117	l-0.787-1.583c-1.768-3.277-4.097-5.987-7.059-8.079C3.77,10.357,3.894,9.353,4.637,9.066c1.899-0.733,4.852-1.068,7.361-1.068	c3.083,0,5.909,1.325,8.371,3.227l0.517,0.459l-0.008-0.176c-0.232-2.465-0.809-4.839-1.797-7.109	c-0.377-0.864,0.552-1.725,1.385-1.283c4.452,2.363,7.332,5.701,8.901,9.809l0.416,1.267l0.56,0.168	c2.147,0.745,3.944,2.036,5.079,4.157l0.219,0.481h9.357c1.02,0,1.381,1.363,0.496,1.869l-4.115,2.351l1.301,0.085	c1.536,0.16,3.053,0.388,4.535,0.72c0.677,0.151,0.999,0.932,0.624,1.515c-0.891,1.388-2.091,2.724-3.621,4.008l-0.405,0.313	l1.092,0.708c0.753,0.545,1.416,1.156,1.911,1.856c0.311,0.441,0.215,1.051-0.217,1.375l-3.333,2.5l0.627,1.253	c0.332,0.664-0.152,1.447-0.893,1.447h-6.232c-1.105,0.985-2.247,1.937-3.081,2.727c-0.057,0.055-0.119,0.1-0.183,0.139	c-1.931,2.543-4.537,4.135-7.504,4.135C23.037,45.998,20.426,44.41,18.493,41.863z" clip-rule="evenodd"/><path fill="#fff" fill-rule="evenodd" d="M17.868,36.941	l-1.131,0.057H6.998l2-3l-5-2l5-3c-1.943-2.78-4.688-4.695-8-6c1.671-1.664,4.619-4,8-4c1.699,0,3.545,0.561,5,1	c-1.928-5.02-4.864-9.081-9-12c1.729-0.668,4.539-1,7-1c3.724,0,7.139,2.139,10,5c-0.013-3.484-0.619-6.831-2-10	c4.847,2.572,7.703,6.324,9,11c2.78,0.705,4.939,2.176,6,5h10l-7,4c3.091,0.107,6.124,0.356,9,1c-1.103,1.719-2.741,3.388-5,5	c1.696,0.864,3.164,1.813,4,3l-4,3l1,2H36.39l-1.875,0.096c-1.761,4.143-4.919,6.904-8.517,6.904	C22.649,42.998,19.682,40.609,17.868,36.941z" clip-rule="evenodd"/><path fill-rule="evenodd" d="M6.165,36.443l1.317-1.973	l-3.856-1.543c-0.767-0.307-0.851-1.361-0.143-1.787l4.001-2.4l-0.801-0.964C5.05,26.121,3.01,24.869,0.63,23.929	c-0.669-0.264-0.848-1.131-0.339-1.639c1.701-1.693,4.9-4.292,8.707-4.292c0.936,0,1.903,0.155,2.813,0.361l0.455,0.117	l-0.787-1.583c-1.768-3.277-4.097-5.987-7.059-8.079C3.77,8.357,3.894,7.353,4.637,7.066c1.899-0.733,4.852-1.068,7.361-1.068	c3.083,0,5.909,1.325,8.371,3.227l0.517,0.459l-0.008-0.176c-0.232-2.465-0.809-4.839-1.797-7.109	c-0.377-0.864,0.552-1.725,1.385-1.283c4.452,2.363,7.332,5.701,8.901,9.809l0.416,1.267l0.56,0.168	c2.147,0.745,3.944,2.036,5.079,4.157l0.219,0.481h9.357c1.02,0,1.381,1.363,0.496,1.869l-4.115,2.351l1.301,0.085	c1.536,0.16,3.053,0.388,4.535,0.72c0.677,0.151,0.999,0.932,0.624,1.515c-0.891,1.388-2.091,2.724-3.621,4.008l-0.405,0.313	l1.092,0.708c0.753,0.545,1.416,1.156,1.911,1.856c0.311,0.441,0.215,1.051-0.217,1.375l-3.333,2.5l0.627,1.253	c0.332,0.664-0.152,1.447-0.893,1.447H36.39c-0.552,0-1-0.448-1-1c0-0.551,0.448-1,1-1h4.989l-0.276-0.552	c-0.216-0.432-0.092-0.957,0.295-1.248l3.136-2.352l-0.8-0.657c-0.613-0.443-1.352-0.871-2.191-1.299	c-0.668-0.34-0.737-1.271-0.127-1.705c1.091-0.779,2.02-1.563,2.805-2.351l1.035-1.147l-0.601-0.113	c-2.153-0.337-4.395-0.496-6.692-0.576c-1.003-0.035-1.332-1.371-0.463-1.868l3.731-2.132h-6.233c-0.417,0-0.791-0.257-0.937-0.648	c-0.916-2.439-2.755-3.735-5.309-4.383c-0.348-0.088-0.621-0.356-0.717-0.701c-0.919-3.308-2.655-6.12-5.407-8.351l-0.711-0.517	l0.575,2.292c0.339,1.735,0.499,3.505,0.505,5.305c0.004,0.889-1.077,1.34-1.707,0.711c-2.783-2.784-5.956-4.708-9.292-4.708	c-1.208,0-2.477,0.083-3.641,0.241L7.205,8.445L8.58,9.689c2.773,2.72,4.86,6.072,6.352,9.952c0.297,0.773-0.428,1.555-1.223,1.316	c-1.488-0.449-3.188-0.959-4.711-0.959c-2.219,0-4.291,1.168-5.88,2.441L2.794,22.73l1.053,0.487	c2.375,1.281,4.409,2.977,5.969,5.209c0.332,0.475,0.192,1.132-0.305,1.431l-3.271,1.963l3.128,1.251	c0.589,0.236,0.813,0.956,0.461,1.484l-0.963,1.444h7.869c0.551,0,1,0.449,1,1c0,0.552-0.449,1-1,1H6.998	C6.201,37.998,5.724,37.107,6.165,36.443z" clip-rule="evenodd"/><path fill-rule="evenodd" d="M18.31,39.725	c-1.144-1.083-3.021-2.599-4.453-3.996c-1.359-1.325-2.859-3.017-2.859-4.731c0-0.252-0.056-1.388,0.364-2.1	c0.249-0.42,0.657-0.753,1.228-0.863c0.135-0.025,0.271-0.037,0.415-0.037l0.04,0.001c0.911,0.025,2.077,0.745,2.869,1.273	l1.083,0.764l0.001-2.039c0-2.796,2.052-5.929,4.637-6.932c0.655-0.253,1.363,0.231,1.363,0.932v3.057l5.419-3.871	c0.66-0.472,1.581,0.003,1.581,0.813v3.92l3.375-2.7c0.653-0.523,1.625-0.056,1.625,0.78v6.037l1.083-0.763	c0.824-0.549,1.947-1.248,2.869-1.273l0.04-0.001c0.144,0,0.28,0.012,0.415,0.037c0.571,0.109,0.979,0.443,1.228,0.863	c0.235,0.4,0.309,0.844,0.34,1.176c0.031,0.339,0.025,0.692,0.025,0.924c0,1.703-1.519,3.423-2.86,4.731	c-1.448,1.413-3.261,2.868-4.453,3.996c-0.401,0.38-1.035,0.363-1.413-0.039c-0.38-0.401-0.363-1.035,0.039-1.413	c1.369-1.296,2.992-2.571,4.432-3.975c1.512-1.476,2.256-2.597,2.256-3.3c0-0.439-0.013-0.695-0.032-0.848l-0.024-0.139	l-0.137,0.033c-0.268,0.092-0.787,0.34-1.616,0.892c-0.899,0.599-1.819,1.305-2.607,1.873c-0.66,0.476-1.584,0.001-1.584-0.812	v-5.919l-3.376,2.7c-0.653,0.523-1.624,0.056-1.624-0.781v-4.056l-5.42,3.871c-0.66,0.472-1.58-0.003-1.58-0.815v-3.179	l-0.484,0.489c-0.897,1.039-1.516,2.435-1.516,3.689v4c0,0.813-0.925,1.288-1.585,0.812c-0.788-0.568-1.708-1.275-2.607-1.873	c-0.805-0.536-1.329-0.792-1.607-0.889l-0.148-0.036l-0.037,0.245c-0.02,0.223-0.016,0.457-0.016,0.741	c0,0.712,0.723,1.804,2.255,3.3c1.424,1.388,3.111,2.724,4.432,3.975c0.401,0.379,0.419,1.012,0.039,1.413	C19.345,40.087,18.712,40.105,18.31,39.725z" clip-rule="evenodd"/><path fill-rule="evenodd" d="M15.108,30.718	c-0.055-0.549,0.345-1.04,0.895-1.096c0.549-0.055,1.04,0.345,1.096,0.895c0.679,6.709,4.607,11.481,8.9,11.481	c4.313,0,8.216-4.743,8.897-11.481c0.056-0.549,0.547-0.949,1.096-0.895c0.549,0.056,0.949,0.547,0.895,1.096	c-0.737,7.293-5.135,13.28-10.888,13.28C20.265,43.998,15.849,38.041,15.108,30.718z" clip-rule="evenodd"/><path fill-rule="evenodd" d="M24.361,38.585	c-0.452-0.256-0.803-0.596-1.088-0.897c-0.38-0.4-0.364-1.033,0.036-1.413c0.4-0.38,1.033-0.364,1.413,0.036	c0.257,0.271,0.44,0.429,0.623,0.533c0.161,0.091,0.356,0.155,0.653,0.155c0.296,0,0.491-0.064,0.652-0.155	c0.181-0.103,0.363-0.26,0.623-0.533c0.38-0.4,1.013-0.416,1.413-0.036c0.4,0.38,0.416,1.013,0.036,1.413	c-0.288,0.303-0.64,0.644-1.088,0.897c-0.469,0.265-1.003,0.413-1.636,0.413C25.363,38.998,24.83,38.85,24.361,38.585z" clip-rule="evenodd"/><path fill-rule="evenodd" d="M22.484,32.857l-5-3	c-0.473-0.284-0.628-0.899-0.344-1.372c0.284-0.473,0.899-0.628,1.372-0.344l5,3c0.473,0.284,0.628,0.899,0.344,1.372	C23.572,32.986,22.957,33.141,22.484,32.857z" clip-rule="evenodd"/><path fill-rule="evenodd" d="M28.139,32.513	c-0.284-0.473-0.129-1.088,0.344-1.372l5-3c0.473-0.284,1.088-0.129,1.372,0.344c0.284,0.473,0.129,1.088-0.344,1.372l-5,3	C29.038,33.141,28.424,32.986,28.139,32.513z" clip-rule="evenodd"/><path fill-rule="evenodd" d="M21.498,30.997	c0.828,0,1.501,0.673,1.501,1.501c0,0.828-0.673,1.501-1.501,1.501c-0.828,0-1.501-0.673-1.501-1.501	C19.997,31.67,20.67,30.997,21.498,30.997z" clip-rule="evenodd"/><path fill-rule="evenodd" d="M30.497,30.998	c0.828,0,1.501,0.673,1.501,1.501s-0.673,1.501-1.501,1.501c-0.828,0-1.501-0.673-1.501-1.501S29.669,30.998,30.497,30.998z" clip-rule="evenodd"/></svg>