<svg xmlns="http://www.w3.org/2000/svg"  viewBox="0 0 48 48" width="480px" height="480px" fill-rule="evenodd" clip-rule="evenodd" baseProfile="basic"><path fill-rule="evenodd" d="M31.025,47.224l-3-13	c-0.145-0.625,0.332-1.225,0.975-1.225h0.779l-1.76-8.803c-0.124-0.619,0.351-1.197,0.981-1.197h0.924l-0.289-4.063L26.01,19.54	v11.459c0,0.328,0.049,0.583,0.105,0.763l0.135,0.28l0.137,0.028c0.359,0.152,0.612,0.508,0.612,0.92	c0,1.64-1.331,3.009-2.991,3.009h-3.02c-1.664,0-2.979-1.361-2.979-3c0-0.412,0.252-0.768,0.611-0.92l0.136-0.028l0.135-0.28	c0.057-0.18,0.108-0.435,0.108-0.763v-9.361l-2.989,1.088v5.264c0,0.328,0.049,0.583,0.105,0.763l0.135,0.28l0.137,0.028	c0.359,0.152,0.612,0.508,0.612,0.92c0,1.64-1.331,3.009-2.991,3.009h-3.02c-1.664,0-2.979-1.361-2.979-3	c0-0.412,0.252-0.768,0.611-0.92l0.136-0.028l0.135-0.28c0.057-0.18,0.108-0.435,0.108-0.763v-5.287l-8.497-4.853	c-0.661-0.379-0.672-1.333-0.017-1.727l5-3c0.853-0.512,1.853,0.415,1.408,1.305L6.377,15.48l2.621,1.067l0.001-6.557	c0-0.327-0.051-0.58-0.108-0.76L8.757,8.948L8.621,8.921C8.262,8.769,8.01,8.413,8.01,7.999c0-1.637,1.315-3,2.979-3h3.02	c1.66,0,2.991,1.371,2.991,3.009c0,0.415-0.253,0.771-0.612,0.923L16.25,8.957l-0.135,0.281c-0.056,0.18-0.105,0.433-0.105,0.76	v6.352l2.989-1.088V6.989c0-0.327-0.051-0.58-0.108-0.76l-0.135-0.281l-0.136-0.027c-0.359-0.152-0.611-0.508-0.611-0.923	c0-1.637,1.315-3,2.979-3h3.02c1.66,0,2.991,1.371,2.991,3.009c0,0.415-0.253,0.771-0.612,0.923L26.25,5.957l-0.135,0.281	c-0.056,0.18-0.105,0.433-0.105,0.76v6.459l3.195-0.532l-0.204-2.855c-0.041-0.579,0.419-1.072,0.999-1.072h6c0.551,0,1,0.449,1,1	v1.627l3.505-0.584l0.08-0.011l0.329-0.028c0.332-0.028,0.657,0.112,0.865,0.372l4,5c0.143,0.177,0.22,0.397,0.22,0.624v9	c0,0.409-0.249,0.777-0.629,0.929l-5,2c-0.371,0.148-0.796,0.061-1.079-0.221l-2.292-2.292v6.584c0,0.889-1.08,1.336-1.708,0.708	l-0.292-0.292v7.584c0,0.889-1.08,1.336-1.708,0.708l-0.292-0.292v5.584C32.999,48.18,31.29,48.375,31.025,47.224z M38.842,25.429	l1.157-1.733v-6.488l-3,0.5v5.877L38.842,25.429z" clip-rule="evenodd"/><path fill-rule="evenodd" d="M-0.002,14.999V17h3.001v-2.001	H-0.002z" clip-rule="evenodd"/><path fill-rule="evenodd" d="M3.998,11.999V14h3.001v-2.001H3.998z" clip-rule="evenodd"/><path fill-rule="evenodd" d="M7.998,5.999V8h3.001V5.999H7.998z" clip-rule="evenodd"/><path fill-rule="evenodd" d="M13.998,5.997v2.001h3.001V5.997	H13.998z" clip-rule="evenodd"/><path fill-rule="evenodd" d="M17.998,2.997v2.001h3.001V2.997	H17.998z" clip-rule="evenodd"/><path fill-rule="evenodd" d="M23.998,2.997v2.001h3.001V2.997	H23.998z" clip-rule="evenodd"/><path fill-rule="evenodd" d="M28.998,7.997v2.001h3.001V7.997	H28.998z" clip-rule="evenodd"/><path fill-rule="evenodd" d="M7.998,27.999V30h3.001v-2.001H7.998z" clip-rule="evenodd"/><path fill-rule="evenodd" d="M13.999,27.999V30h3.001v-2.001	H13.999z" clip-rule="evenodd"/><path fill-rule="evenodd" d="M17.999,30.999V33h3.001v-2.001	H17.999z" clip-rule="evenodd"/><path fill-rule="evenodd" d="M23.998,30.997v2.001h3.001v-2.001	H23.998z" clip-rule="evenodd"/><path fill-rule="evenodd" d="M27.998,31.997v2.001h3.001v-2.001	H27.998z" clip-rule="evenodd"/><path fill-rule="evenodd" d="M27.999,21.999V24h3.001v-2.001	H27.999z" clip-rule="evenodd"/><path fill="#fff" fill-rule="evenodd" d="M31.999,44.999l-3-13h2	l-2-10h2l-0.445-6.231l-5.544,0.924v12.307c0,1.099,0.444,1.991,0.989,1.991c0,1.099-0.893,2.009-1.991,2.009h-3.02	c-1.097,0-1.979-0.901-1.979-2c0.545,0,0.989-0.892,0.989-1.991V18.219l-4.989,1.815v5.965c0,1.099,0.444,1.991,0.989,1.991	c0,1.099-0.893,2.009-1.991,2.009h-3.02c-1.097,0-1.979-0.901-1.979-2c0.545,0,0.989-0.892,0.989-1.991V20.14l-9-5.141l5-3l-1,2	l4.999,2.033l0.001-8.043c0-1.099-0.444-1.991-0.989-1.991c0-1.099,0.881-2,1.979-2h3.02c1.097,0,1.991,0.911,1.991,2.009	c-0.545,0-0.989,0.892-0.989,1.991v7.779l4.989-1.815V4.989c0-1.099-0.444-1.991-0.989-1.991c0-1.099,0.881-2,1.979-2h3.02	c1.097,0,1.991,0.911,1.991,2.009c-0.545,0-0.989,0.892-0.989,1.991v7.639l5.257-0.876l-0.268-3.763h6v2.807l4.671-0.779	l0.329-0.028l4,5v9l-5,2l-1-1l2-3v-7.972l-5,0.833v16.139l-2-2v10l-2-2V44.999z" clip-rule="evenodd"/><path fill-rule="evenodd" d="M31.025,45.224l-3-13	c-0.145-0.625,0.332-1.225,0.975-1.225h0.779l-1.76-8.803c-0.124-0.619,0.351-1.197,0.981-1.197h0.924l-0.289-4.063L26.01,17.54	v11.459c0,0.328,0.049,0.583,0.105,0.763l0.135,0.28l0.137,0.028c0.359,0.152,0.612,0.508,0.612,0.92	c0,1.64-1.331,3.009-2.991,3.009h-3.02c-1.664,0-2.979-1.361-2.979-3c0-0.412,0.252-0.768,0.611-0.92l0.136-0.028l0.135-0.28	c0.057-0.18,0.108-0.435,0.108-0.763v-9.361l-2.989,1.088v5.264c0,0.328,0.049,0.583,0.105,0.763l0.135,0.28l0.137,0.028	c0.359,0.152,0.612,0.508,0.612,0.92c0,1.64-1.331,3.009-2.991,3.009h-3.02c-1.664,0-2.979-1.361-2.979-3	c0-0.412,0.252-0.768,0.611-0.92l0.136-0.028l0.135-0.28c0.057-0.18,0.108-0.435,0.108-0.763v-5.287l-8.497-4.853	c-0.661-0.379-0.672-1.333-0.017-1.727l5-3c0.853-0.512,1.853,0.415,1.408,1.305L6.377,13.48l2.621,1.067l0.001-6.557	c0-0.327-0.051-0.58-0.108-0.76L8.757,6.948L8.621,6.921C8.262,6.769,8.01,6.413,8.01,5.999c0-1.637,1.315-3,2.979-3h3.02	c1.66,0,2.991,1.371,2.991,3.009c0,0.415-0.253,0.771-0.612,0.923L16.25,6.957l-0.135,0.281c-0.056,0.18-0.105,0.433-0.105,0.76	v6.352l2.989-1.088V4.989c0-0.327-0.051-0.58-0.108-0.76l-0.135-0.281l-0.136-0.027c-0.359-0.152-0.611-0.508-0.611-0.923	c0-1.637,1.315-3,2.979-3h3.02c1.66,0,2.991,1.371,2.991,3.009c0,0.415-0.253,0.771-0.612,0.923L26.25,3.957l-0.135,0.281	c-0.056,0.18-0.105,0.433-0.105,0.76v6.459l3.195-0.532l-0.204-2.855c-0.041-0.579,0.419-1.072,0.999-1.072h6c0.551,0,1,0.449,1,1	v1.627l3.505-0.584l0.08-0.011l0.329-0.028c0.332-0.028,0.657,0.112,0.865,0.372l4,5c0.143,0.177,0.22,0.397,0.22,0.624v9	c0,0.409-0.249,0.777-0.629,0.929l-5,2c-0.371,0.148-0.796,0.061-1.079-0.221l-1-1c-0.337-0.337-0.389-0.865-0.125-1.263	l1.833-2.748v-6.488l-3,0.5v15.291c0,0.889-1.08,1.336-1.708,0.708l-0.292-0.292v7.584c0,0.889-1.08,1.336-1.708,0.708l-0.292-0.292	v5.584C32.999,46.18,31.29,46.375,31.025,45.224z M31.102,36.669l0.075-0.244c0.333-0.471,1.057-0.604,1.529-0.133l0.293,0.293	v-7.587c0-0.888,1.079-1.335,1.707-0.707l0.293,0.293V14.86c0-0.488,0.353-0.905,0.835-0.985l5-0.833	c0.609-0.101,1.165,0.368,1.165,0.985v7.972c0,0.199-0.059,0.391-0.168,0.556l-1.487,2.229l3.655-1.461v-7.972l-3.435-4.292	l-4.401,0.733c-0.609,0.101-1.164-0.368-1.164-0.987V8.999h-3.927l0.192,2.692c0.036,0.515-0.325,0.973-0.833,1.057l-5.257,0.876	c-0.609,0.101-1.164-0.368-1.164-0.987V4.999c0-0.905,0.249-1.893,0.84-2.487l-0.147-0.217c-0.181-0.183-0.428-0.296-0.695-0.296	h-3.02c-0.267,0-0.511,0.111-0.689,0.291l-0.143,0.213c0.592,0.593,0.843,1.581,0.843,2.487v8.973c0,0.421-0.264,0.797-0.659,0.94	l-4.989,1.815c-0.652,0.237-1.341-0.247-1.341-0.94V7.999c0-0.905,0.249-1.893,0.84-2.487l-0.147-0.217	c-0.181-0.183-0.428-0.296-0.695-0.296h-3.02c-0.267,0-0.511,0.111-0.689,0.291l-0.143,0.213c0.592,0.593,0.843,1.581,0.843,2.488	l-0.003,8.043c0,0.708-0.72,1.193-1.376,0.925l-4.999-2.033c-0.271-0.109-0.465-0.321-0.561-0.584l-1.083,0.637l7.517,4.293	c0.311,0.179,0.504,0.509,0.504,0.868v5.868c0,0.68-0.141,1.407-0.461,1.977l-0.38,0.511l0.141,0.213	c0.179,0.18,0.423,0.289,0.689,0.289h3.02c0.267,0,0.513-0.112,0.695-0.295l0.145-0.217l-0.38-0.511	c-0.319-0.571-0.459-1.297-0.459-1.977v-5.965c0-0.42,0.263-0.796,0.657-0.939l4.989-1.815c0.652-0.237,1.343,0.247,1.343,0.939	v10.789c0,0.68-0.141,1.407-0.461,1.977l-0.38,0.511l0.141,0.213c0.179,0.18,0.423,0.289,0.689,0.289h3.02	c0.267,0,0.513-0.112,0.695-0.295l0.145-0.217l-0.38-0.511c-0.319-0.571-0.459-1.297-0.459-1.977V16.692	c0-0.488,0.353-0.905,0.835-0.985l5.544-0.924c0.581-0.097,1.12,0.328,1.163,0.915l0.445,6.231c0.041,0.579-0.419,1.071-0.997,1.071	h-0.781l1.761,8.804c0.124,0.619-0.351,1.196-0.98,1.196h-0.745L31.102,36.669z" clip-rule="evenodd"/><path fill-rule="evenodd" d="M38.291,25.707l-3-3	c-0.391-0.391-0.391-1.024,0-1.415c0.391-0.391,1.024-0.391,1.415,0l3,3c0.391,0.391,0.391,1.024,0,1.415	C39.315,26.097,38.682,26.097,38.291,25.707z" clip-rule="evenodd"/></svg>