<svg xmlns="http://www.w3.org/2000/svg"  viewBox="0 0 48 48" width="480px" height="480px" fill-rule="evenodd" clip-rule="evenodd" baseProfile="basic"><path fill-rule="evenodd" d="M2.005,39.999v2.001h44.006v-2.001	H2.005z" clip-rule="evenodd"/><path fill-rule="evenodd" d="M11.007,45.007v-0.003l-6-0.005	c-1.657,0-3-1.345-3-3.001c0-0.369,0.068-0.727,0.189-1.048L8.01,24.815l0.044-2.597c0.224-6.229,1.264-10.659,3.535-13.601	c2.659-3.444,6.805-4.617,12.416-4.617c5.609,0,9.756,1.173,12.416,4.617c2.271,2.943,3.311,7.372,3.536,13.601l0.044,2.601	l5.813,16.131c0.121,0.321,0.191,0.679,0.191,1.048c0,1.656-1.344,3.001-3,3.001l-6,0.008c0,1.653-1.34,2.992-2.991,2.992H13.998	C12.346,47.999,11.007,46.661,11.007,45.007z" clip-rule="evenodd"/><path fill="#fff" fill-rule="evenodd" d="M33.014,44.999H14.998	c-1.099,0-1.991-0.892-1.991-1.991v-1.009h-8c-1.104,0-2-0.897-2-2.001c0-0.247,0.045-0.484,0.128-0.703l5.872-16.296	c0-15.392,3.997-20,14.997-20s15,4.608,15,20l5.872,16.296c0.083,0.219,0.128,0.456,0.128,0.703c0,1.104-0.896,2.001-2,2.001h-8	v1.009C35.005,44.107,34.113,44.999,33.014,44.999z" clip-rule="evenodd"/><path fill-rule="evenodd" d="M15.507,36.999	c0.828,0,1.501,0.672,1.501,1.5c0,0.828-0.673,1.5-1.501,1.5c-0.828,0-1.501-0.672-1.501-1.5	C14.006,37.671,14.679,36.999,15.507,36.999z" clip-rule="evenodd"/><path fill-rule="evenodd" d="M32.505,36.999	c0.828,0,1.501,0.672,1.501,1.5c0,0.828-0.673,1.5-1.501,1.5c-0.828,0-1.501-0.672-1.501-1.5	C31.003,37.671,31.677,36.999,32.505,36.999z" clip-rule="evenodd"/><path fill-rule="evenodd" d="M18.007,25.999c-2.064,0-5-1.057-5-3	c0-2.291,2.787-4,5-4c3.203,0,4,1.703,4,4C22.007,25.651,19.673,25.999,18.007,25.999z" clip-rule="evenodd"/><path fill-rule="evenodd" d="M11.007,43.005l-6-0.005	c-1.657,0-3-1.345-3-3.001c0-0.369,0.068-0.727,0.189-1.048L8.01,22.815l0.044-2.597c0.224-6.229,1.264-10.659,3.535-13.601	c2.659-3.444,6.805-4.617,12.416-4.617c5.609,0,9.756,1.173,12.416,4.617c2.271,2.943,3.311,7.372,3.536,13.601l0.044,2.601	l5.813,16.131c0.121,0.321,0.191,0.679,0.191,1.048c0,1.656-1.344,3.001-3,3.001l-6,0.008c0,1.653-1.34,2.992-2.991,2.992H13.998	c-1.652,0-2.991-1.339-2.991-2.992V43.005z M35.005,43.009v-1.009c0-0.551,0.448-1,1-1h7c0.551,0,1-0.448,1-1.001	c0-0.123-0.023-0.24-0.067-0.356l-5.875-16.303c-0.039-0.109-0.059-0.224-0.059-0.34c0-7.675-1.013-12.371-3.167-15.16	c-2.091-2.708-5.444-3.84-10.833-3.84c-5.391,0-8.743,1.132-10.833,3.84c-2.153,2.789-3.164,7.485-3.164,15.16	c0,0.116-0.021,0.231-0.06,0.34L4.073,39.642c-0.044,0.116-0.065,0.233-0.065,0.356c0,0.553,0.448,1.001,1,1.001h7	c0.551,0,1,0.449,1,1v1.009c0,0.547,0.444,0.991,0.991,0.991h20.016C34.559,43.999,35.005,43.555,35.005,43.009z" clip-rule="evenodd"/><path fill-rule="evenodd" d="M30.005,25.999c2.064,0,5-1.057,5-3	c0-2.291-2.787-4-5-4c-3.203,0-4,1.703-4,4C26.005,25.651,28.339,25.999,30.005,25.999z" clip-rule="evenodd"/><path fill-rule="evenodd" d="M23.007,28.999v-7	c0-0.551,0.448-1,1-1c0.551,0,1,0.449,1,1v7c0,0.552-0.449,1-1,1C23.455,29.999,23.007,29.551,23.007,28.999z" clip-rule="evenodd"/><path fill-rule="evenodd" d="M8.309,18.754	c-0.289-0.469-0.144-1.085,0.327-1.376c1.216-0.751,2.599-1.605,4.137-2.265c1.551-0.665,3.285-1.147,5.235-1.147	c2.493,0,4.737,0.907,6.532,2.035c0.467,0.293,0.608,0.911,0.313,1.379c-0.293,0.467-0.911,0.608-1.379,0.313	c-1.581-0.995-3.46-1.727-5.467-1.727c-1.611,0-3.075,0.396-4.445,0.984c-1.383,0.593-2.644,1.369-3.877,2.131	C9.215,19.37,8.599,19.225,8.309,18.754z" clip-rule="evenodd"/><path fill-rule="evenodd" d="M8.125,23.471	c-0.26-0.487-0.076-1.093,0.411-1.353c2.932-1.568,5.868-4.119,9.472-4.119c2.624,0,5.155,1.688,6.719,3.305	c0.383,0.397,0.372,1.031-0.024,1.415c-0.397,0.383-1.031,0.372-1.415-0.024c-1.388-1.436-3.433-2.696-5.28-2.696	c-2.919,0-5.555,2.292-8.529,3.883C8.991,24.142,8.385,23.958,8.125,23.471z" clip-rule="evenodd"/><path fill-rule="evenodd" d="M38.326,19.081	c-1.233-0.761-2.495-1.537-3.877-2.131c-1.371-0.588-2.835-0.984-4.444-0.984c-2.008,0-3.887,0.732-5.468,1.727	c-0.468,0.295-1.085,0.153-1.379-0.313c-0.295-0.468-0.153-1.085,0.313-1.379c1.795-1.128,4.039-2.035,6.533-2.035	c1.948,0,3.683,0.481,5.233,1.147c1.539,0.66,2.921,1.515,4.137,2.265c0.471,0.291,0.616,0.907,0.327,1.376	C39.411,19.225,38.795,19.37,38.326,19.081z" clip-rule="evenodd"/><path fill-rule="evenodd" d="M38.533,23.882	c-2.969-1.588-5.609-3.883-8.528-3.883c-1.845,0-3.896,1.263-5.281,2.696c-0.384,0.396-1.017,0.407-1.415,0.024	c-0.396-0.384-0.407-1.017-0.024-1.415c1.561-1.615,4.097-3.305,6.72-3.305c3.607,0,6.563,2.564,9.471,4.119	c0.487,0.26,0.671,0.867,0.411,1.353C39.626,23.958,39.019,24.142,38.533,23.882z" clip-rule="evenodd"/><path fill="#fff" fill-rule="evenodd" d="M22.007,19.007V0.999	h3.999v18.008c0,1.099-0.892,1.991-1.991,1.991h-0.017C22.899,20.998,22.007,20.106,22.007,19.007z" clip-rule="evenodd"/><path fill-rule="evenodd" d="M21.007,19.007V0.999	c0-0.551,0.448-1,1-1h3.999c0.551,0,1,0.449,1,1v18.008c0,1.652-1.34,2.991-3.004,2.991C22.346,21.998,21.007,20.659,21.007,19.007z M25.006,19.007V1.999h-1.999v17.008c0,0.547,0.444,0.991,1.003,0.991C24.561,19.998,25.006,19.554,25.006,19.007z" clip-rule="evenodd"/><path fill-rule="evenodd" d="M24.007,29.999l8,8h-16L24.007,29.999	z" clip-rule="evenodd"/><path fill="#fff" fill-rule="evenodd" d="M22.007,26.007v-4.008	h3.999v4.008c0,1.099-0.892,1.991-1.991,1.991h-0.017C22.899,27.998,22.007,27.106,22.007,26.007z" clip-rule="evenodd"/><path fill-rule="evenodd" d="M21.007,26.007v-4.008	c0-0.551,0.448-1,1-1h3.999c0.551,0,1,0.449,1,1v4.008c0,1.652-1.34,2.991-3.004,2.991C22.346,28.998,21.007,27.659,21.007,26.007z M25.006,26.007v-3.008h-1.999v3.008c0,0.547,0.444,0.991,1.003,0.991C24.561,26.998,25.006,26.554,25.006,26.007z" clip-rule="evenodd"/><path fill-rule="evenodd" d="M11.007,41.999v-2	c0-0.551,0.448-1,1-1c0.551,0,1,0.449,1,1v2c0,0.552-0.449,1-1,1C11.455,42.999,11.007,42.551,11.007,41.999z" clip-rule="evenodd"/><path fill-rule="evenodd" d="M35.007,41.999v-2	c0-0.551,0.448-1,1-1c0.551,0,1,0.449,1,1v2c0,0.552-0.449,1-1,1C35.455,42.999,35.007,42.551,35.007,41.999z" clip-rule="evenodd"/><path fill="#fff" fill-rule="evenodd" d="M23.007,39.001v-7.001	c0-0.551,0.448-1,1-1c0.551,0,1,0.449,1,1v7.001c0,0.552-0.449,1-1,1C23.455,40.001,23.007,39.553,23.007,39.001z" clip-rule="evenodd"/><path fill="#fff" fill-rule="evenodd" d="M27.003,39.002v-8.001	c0-0.551,0.448-1,1-1c0.551,0,1,0.449,1,1v8.001c0,0.552-0.449,1-1,1C27.451,40.002,27.003,39.554,27.003,39.002z" clip-rule="evenodd"/><path fill="#fff" fill-rule="evenodd" d="M19.003,39.001v-8.001	c0-0.551,0.448-1,1-1c0.551,0,1,0.449,1,1v8.001c0,0.552-0.449,1-1,1C19.451,40.001,19.003,39.553,19.003,39.001z" clip-rule="evenodd"/><path fill-rule="evenodd" d="M14.445,38.281l-3.359-7.889	c-0.28-0.659,0.205-1.392,0.921-1.392h11c0.551,0,1,0.449,1,1c0,0.552-0.449,1-1,1h-9.488l2.767,6.499	c0.216,0.508-0.021,1.095-0.529,1.312C15.249,39.026,14.662,38.789,14.445,38.281z" clip-rule="evenodd"/><path fill-rule="evenodd" d="M32.251,38.81	c-0.508-0.217-0.745-0.804-0.529-1.312l2.767-6.499h-9.487c-0.552,0-1-0.448-1-1c0-0.551,0.448-1,1-1h11	c0.715,0,1.2,0.733,0.92,1.392l-3.359,7.889C33.346,38.789,32.759,39.026,32.251,38.81z" clip-rule="evenodd"/><path fill-rule="evenodd" d="M15.299,37.293l8-8	c0.391-0.391,1.024-0.391,1.415,0l8,8c0.628,0.628,0.181,1.707-0.707,1.707h-16C15.118,38.999,14.671,37.921,15.299,37.293z M29.593,36.999l-5.585-5.585l-5.587,5.585H29.593z" clip-rule="evenodd"/><path fill-rule="evenodd" d="M24.007,27.001	c1.655,0,3,1.344,3,2.999c0,1.655-1.345,2.999-3,2.999c-1.655,0-3-1.344-3-2.999C21.007,28.345,22.353,27.001,24.007,27.001z" clip-rule="evenodd"/><path fill="#fff" fill-rule="evenodd" d="M24.007,28.999	c0.552,0,1,0.448,1,1c0,0.552-0.448,1-1,1c-0.552,0-1-0.448-1-1C23.007,29.447,23.455,28.999,24.007,28.999z" clip-rule="evenodd"/></svg>